<svg width="18" height="16" viewBox="0 0 18 16" fill="none" xmlns="http://www.w3.org/2000/svg">
<path fill-rule="evenodd" clip-rule="evenodd" d="M4.99505 2.02617C5.33001 1.4174 5.6944 1.01045 6.23511 0.795234C7.22595 0.40125 10.7746 0.40125 11.7647 0.795312C12.3051 1.01041 12.6696 1.41729 13.0048 2.02594L13.3817 2.74857C13.3903 2.76289 13.3982 2.77548 13.4053 2.78631L13.4373 2.83007C13.609 3.01715 13.8964 3.13017 14.086 3.13017C15.8794 3.13017 17.3335 4.584 17.3335 6.37684V11.206C17.3335 13.4929 15.4787 15.3477 13.1919 15.3477H4.80854C2.52112 15.3477 0.66687 13.4931 0.66687 11.206V6.37684C0.66687 4.584 2.12102 3.13017 3.91437 3.13017C4.10335 3.13017 4.3911 3.01699 4.56307 2.83007C4.56651 2.82632 4.57099 2.82075 4.57641 2.81337L4.61927 2.74763L4.99505 2.02617ZM11.9099 2.62899C11.7016 2.25079 11.5134 2.04066 11.3024 1.9567L11.203 1.92364C10.3453 1.68124 7.36221 1.69226 6.69716 1.9567C6.48632 2.04062 6.29827 2.25063 6.09022 2.62876L5.7695 3.24884L5.69056 3.3917C5.62467 3.50131 5.55876 3.59383 5.48349 3.67583C5.06144 4.13459 4.43708 4.38017 3.91437 4.38017L3.77762 4.38478C2.73833 4.45505 1.91687 5.32035 1.91687 6.37684V11.206C1.91687 12.8028 3.21153 14.0977 4.80854 14.0977H13.1919C14.7884 14.0977 16.0835 12.8025 16.0835 11.206V6.37684C16.0835 5.27442 15.1891 4.38017 14.086 4.38017L13.9409 4.37411C13.4505 4.33375 12.8996 4.09281 12.5164 3.67528C12.4421 3.59436 12.3766 3.5025 12.3111 3.39381C12.3017 3.37822 12.29 3.3577 12.2766 3.33341L12.1798 3.15196L11.9099 2.62899Z" fill="#9B9DA3"/>
<path d="M13.5872 5.08325C14.0474 5.08325 14.4205 5.45635 14.4205 5.91659C14.4205 6.34395 14.0988 6.69617 13.6844 6.74431L13.5872 6.74992C13.1194 6.74992 12.7463 6.37682 12.7463 5.91659C12.7463 5.48922 13.068 5.137 13.4825 5.08886L13.5872 5.08325Z" fill="#9B9DA3"/>
<path fill-rule="evenodd" clip-rule="evenodd" d="M5.72583 8.93994C5.72583 7.13143 7.19149 5.66577 9 5.66577C10.8085 5.66577 12.2742 7.13143 12.2742 8.93994C12.2742 10.7484 10.8085 12.2141 9 12.2141C7.19149 12.2141 5.72583 10.7484 5.72583 8.93994ZM11.0242 8.93994C11.0242 7.82178 10.1182 6.91577 9 6.91577C7.88184 6.91577 6.97583 7.82178 6.97583 8.93994C6.97583 10.0581 7.88184 10.9641 9 10.9641C10.1182 10.9641 11.0242 10.0581 11.0242 8.93994Z" fill="#9B9DA3"/>
</svg>
