<svg width="28" height="28" viewBox="0 0 28 28" fill="none" xmlns="http://www.w3.org/2000/svg">
<path fill-rule="evenodd" clip-rule="evenodd" d="M7.29166 4.08337C4.08333 4.08337 4.08333 4.32604 4.08333 7.29171V7.32087C4.08333 8.61237 4.08333 9.54571 4.3995 9.94004C4.70866 10.3227 5.62683 10.5 7.29166 10.5C8.95649 10.5 9.87466 10.3215 10.1838 9.93887C10.5 9.54571 10.5 8.61237 10.5 7.31971C10.5 4.32604 10.5 4.08337 7.29166 4.08337ZM7.29166 12.25C5.32466 12.25 3.84883 12.0435 3.03799 11.0367C2.33333 10.1629 2.33333 8.97054 2.33333 7.32087L3.20833 7.29171H2.33333C2.33333 3.94337 2.5445 2.33337 7.29166 2.33337C12.0388 2.33337 12.25 3.94337 12.25 7.29171C12.25 8.96937 12.25 10.1629 11.5453 11.0367C10.7345 12.0435 9.25866 12.25 7.29166 12.25Z" fill="#AD96F9"/>
<path fill-rule="evenodd" clip-rule="evenodd" d="M20.125 4.08337C16.9167 4.08337 16.9167 4.32604 16.9167 7.29171V7.32087C16.9167 8.61237 16.9167 9.54571 17.2328 9.94004C17.542 10.3227 18.4602 10.5 20.125 10.5C21.7898 10.5 22.708 10.3215 23.0172 9.93887C23.3333 9.54571 23.3333 8.61237 23.3333 7.31971C23.3333 4.32604 23.3333 4.08337 20.125 4.08337ZM20.125 12.25C18.158 12.25 16.6822 12.0435 15.8713 11.0367C15.1667 10.1629 15.1667 8.97054 15.1667 7.32087L16.0417 7.29171H15.1667C15.1667 3.94337 15.3778 2.33337 20.125 2.33337C24.8722 2.33337 25.0833 3.94337 25.0833 7.29171C25.0833 8.96937 25.0833 10.1629 24.3787 11.0367C23.5678 12.0435 22.092 12.25 20.125 12.25Z" fill="#AD96F9"/>
<path fill-rule="evenodd" clip-rule="evenodd" d="M7.29166 16.9167C4.08333 16.9167 4.08333 17.1594 4.08333 20.1251V20.1542C4.08333 21.4457 4.08333 22.3791 4.3995 22.7734C4.70866 23.1561 5.62683 23.3334 7.29166 23.3334C8.95649 23.3334 9.87466 23.1549 10.1838 22.7722C10.5 22.3791 10.5 21.4457 10.5 20.1531C10.5 17.1594 10.5 16.9167 7.29166 16.9167ZM7.29166 25.0834C5.32466 25.0834 3.84883 24.8769 3.03799 23.8701C2.33333 22.9962 2.33333 21.8039 2.33333 20.1542L3.20833 20.1251H2.33333C2.33333 16.7767 2.5445 15.1667 7.29166 15.1667C12.0388 15.1667 12.25 16.7767 12.25 20.1251C12.25 21.8027 12.25 22.9962 11.5453 23.8701C10.7345 24.8769 9.25866 25.0834 7.29166 25.0834Z" fill="#AD96F9"/>
<path fill-rule="evenodd" clip-rule="evenodd" d="M20.125 16.9167C16.9167 16.9167 16.9167 17.1594 16.9167 20.1251V20.1542C16.9167 21.4457 16.9167 22.3791 17.2328 22.7734C17.542 23.1561 18.4602 23.3334 20.125 23.3334C21.7898 23.3334 22.708 23.1549 23.0172 22.7722C23.3333 22.3791 23.3333 21.4457 23.3333 20.1531C23.3333 17.1594 23.3333 16.9167 20.125 16.9167ZM20.125 25.0834C18.158 25.0834 16.6822 24.8769 15.8713 23.8701C15.1667 22.9962 15.1667 21.8039 15.1667 20.1542L16.0417 20.1251H15.1667C15.1667 16.7767 15.3778 15.1667 20.125 15.1667C24.8722 15.1667 25.0833 16.7767 25.0833 20.1251C25.0833 21.8027 25.0833 22.9962 24.3787 23.8701C23.5678 24.8769 22.092 25.0834 20.125 25.0834Z" fill="#AD96F9"/>
</svg>
